# xmcd CD database file
#
# Track frame offsets:
#	150
#	23131
#	39791
#	54366
#	72025
#	87005
#	103174
#
# Disc length: 1596 seconds
#
# Revision: 1
# Processed by: cddbd v1.5.2PL0 Copyright (c) Steve Scherf et al.
# Submitted via: CDex 1.70beta3
#
DISCID=49063a07
DTITLE=ハッチハッチェル - 新曲マガジン9月号
DYEAR=2016
DGENRE=Jazz
TTITLE0=おしゃれなくらし
TTITLE1=女王様
TTITLE2=まあ、あわてるな
TTITLE3=おどりこ
TTITLE4=どろぼうジャイヴ
TTITLE5=くり返しのニャン生
TTITLE6=それでいいのだ
EXTD=YEAR: 2016
EXTT0=
EXTT1=
EXTT2=
EXTT3=
EXTT4=
EXTT5=
EXTT6=
PLAYORDER=
